# xmcd
#
# Track frame offsets:
# 150
# 1158
# 15253
# 31298
# 44427
# 56743
# 72056
# 84214
# 99027
# 113737
# 126900
# 140315
# 151170
# 176634
#
# Disc length: 3827 seconds
#
# Revision: 16
# Processed by: cddbd v1.5.2PL0 Copyright (c) Steve Scherf et al.
# Submitted via: TinyPlayer 2.8
#
DISCID=9c0ef10e
DTITLE=Linkin Park - Meteora
DYEAR=2003
DGENRE=Nu Metal
TTITLE0=Foreword
TTITLE1=Don't Stay
TTITLE2=Somewhere I Belong
TTITLE3=Lying from You
TTITLE4=Hit the Floor
TTITLE5=Easier to Run
TTITLE6=Faint
TTITLE7=Figure.09
TTITLE8=Breaking the Habit
TTITLE9=From the Inside
TTITLE10=Nobody's Listening
TTITLE11=Session
TTITLE12=Numb
TTITLE13=Data: Videos and screensaver (SWF)
EXTD=CDDBSort:linkin_park,meteora;
EXTT0=
EXTT1=
EXTT2=
EXTT3=
EXTT4=
EXTT5=
EXTT6=
EXTT7=
EXTT8=
EXTT9=
EXTT10=
EXTT11=
EXTT12=
EXTT13=
PLAYORDER=
